# xmcd
#
# Track frame offsets:
#	150
#	14877
#	25698
#	36757
#	57765
#	73958
#	89489
#	104151
#	119024
#	138213
#	149514
#	163923
#	180077
#
# Disc length: 2632 seconds
#
# Revision: 0
# Processed by: cddbd v1.5.2PL0 Copyright (c) Steve Scherf et al.
# Submitted via: EZCDAudioConverter 2.1.7.1
#
DISCID=c10a460d
DTITLE=Crowded House - Time On Earth 2/2
DYEAR=1900
DGENRE=
TTITLE0=She Called Up [Home Demo]
TTITLE1=A Sigh [Home Demo]
TTITLE2=Here's A Note [Studio Demo]
TTITLE3=Purple Light [Studio Demo]
TTITLE4=So Dramatic
TTITLE5=Stare Me Out [Alternate Version]
TTITLE6=Distance Across [Studio Demo]
TTITLE7=Lost Island
TTITLE8=Stare Me Out
TTITLE9=Bound To Rescue [Home Demo]
TTITLE10=Don't Stop Now [Home Demo]
TTITLE11=Won't Be Silent [Home Demo]
TTITLE12=People Are Like Suns [Piano Version]
EXTD=
EXTT0=
EXTT1=
EXTT2=
EXTT3=
EXTT4=
EXTT5=
EXTT6=
EXTT7=
EXTT8=
EXTT9=
EXTT10=
EXTT11=
EXTT12=
PLAYORDER=
